# xmcd
# 
# Track frame offsets:
#     150
#     3612
#     24838
#     43109
#     61033
# 
# Disc length: 1061
# 
# Revision: 0
# Processed by: cddbd v1.5.2PL0 Copyright (c) Steve Scherf et al.
# Submitted via: BonkEnc v1.0.15
# 
DISCID=31042305
DTITLE=Nightmare - Astral Deliverance
DYEAR=1999
DGENRE=Heavy Metal
TTITLE0=Astral Deliverance
TTITLE1=The Legend
TTITLE2=Heart Of Fire
TTITLE3=Princess Of TheRising Sun
TTITLE4=Howlers Of Insanity
EXTD=
EXTT0=
EXTT1=
EXTT2=
EXTT3=
EXTT4=
PLAYORDER=
